<svg width="128" height="128" viewBox="0 0 128 128" fill="none" xmlns="http://www.w3.org/2000/svg">
<g clip-path="url(#clip0_18_2)">
<path d="M64.1 0C28.8 0 0.200012 28.7 0.200012 64C0.200012 99.3 28.8 128 64.1 128C99.4 128 128 99.3 128 64C127.9 28.7 99.3 0 64.1 0ZM64.1 122.7C31.7 122.7 5.50001 96.4 5.50001 64C5.50001 31.6 31.7 5.3 64.1 5.3C96.4 5.3 122.7 31.6 122.7 64C122.6 96.4 96.4 122.7 64.1 122.7ZM63.8 28.8L33.1 59.5L36.9 63.3L61.4 38.8V104H66.7V39.4L90.7 63.4L94.5 59.6L63.8 28.8Z" fill="white"/>
</g>
<defs>
<clipPath id="clip0_18_2">
<rect width="128" height="128" fill="white"/>
</clipPath>
</defs>
</svg>
