<svg width="496" height="512" viewBox="0 0 496 512" fill="none" xmlns="http://www.w3.org/2000/svg">
<path d="M496 256C496 388.576 388.576 496 256 496V256H496Z" fill="#FFE5CA"/>
<path d="M16 256C16 388.576 123.424 496 256 496V256H16Z" fill="#FFD086"/>
<path d="M256 256V16C322.288 16 382.288 42.816 425.736 86.264L256 256Z" fill="#F69489"/>
<path d="M256 16V256L86.264 86.264C129.712 42.816 189.712 16 256 16Z" fill="#91CBD7"/>
<path d="M256 256H16C16 189.712 42.816 129.712 86.264 86.264L256 256Z" fill="#FFE5CA"/>
<path d="M256 256H496C496 189.712 469.184 129.712 425.736 86.264L256 256Z" fill="#ED6571"/>
<path d="M32 256H16V16H256V32H32V256Z" fill="#83779F"/>
<path d="M312 320H392V336H312V320Z" fill="#83779F"/>
<path d="M328 328H344V400H328V328Z" fill="#83779F"/>
<path d="M378.344 405.656L360 387.312V328H376V380.688L389.656 394.344L378.344 405.656Z" fill="#83779F"/>
<path d="M344 168V256H360V152L344 168Z" fill="#FFD086"/>
<path d="M312 200V256H328V184L312 200Z" fill="#FFD086"/>
<path d="M376 136V256H392V120L376 136Z" fill="#FFD086"/>
<path d="M408 104V256H424V88L408 104Z" fill="#FFD086"/>
<path d="M232 494.8V256H216V492.624C221.28 493.504 226.608 494.264 232 494.8Z" fill="#ED6571"/>
<path d="M168 479.288V256H152V472.368C157.224 474.88 162.576 477.144 168 479.288Z" fill="#ED6571"/>
<path d="M200 489.368V256H184V485C189.248 486.648 194.6 488.072 200 489.368Z" fill="#ED6571"/>
<path d="M72 410.064V256H56V388.672C60.944 396.104 66.28 403.248 72 410.064Z" fill="#ED6571"/>
<path d="M104 441.736V256H88V427.352C93.12 432.376 98.448 437.184 104 441.736Z" fill="#ED6571"/>
<path d="M136 463.824V256H120V453.736C125.184 457.312 130.528 460.664 136 463.824Z" fill="#ED6571"/>
<path d="M408 280H424V296H408V280Z" fill="#83779F"/>
<path d="M376 280H392V296H376V280Z" fill="#83779F"/>
<path d="M440 280H456V296H440V280Z" fill="#83779F"/>
<path d="M92.048 80.736L29.656 18.344L18.344 29.656L80.736 92.048C84.376 88.152 88.152 84.376 92.048 80.736Z" fill="#83779F"/>
<path d="M419.952 80.736L482.344 18.344L493.656 29.656L431.264 92.048C427.624 88.152 423.848 84.376 419.952 80.736Z" fill="#83779F"/>
</svg>
