<svg xmlns="http://www.w3.org/2000/svg" xml:space="preserve" width="256" height="256" id="flash">
  <path fill="#B71C1C" d="M128 247.322C62.1 247.322 8.678 193.9 8.678 128 8.678 194.274 62.1 248 128 248s119.322-53.726 119.322-120c0 65.9-53.422 119.322-119.322 119.322z" opacity=".2"></path>
  <path fill="#FFF" d="M128 8.678C193.9 8.678 247.322 62.1 247.322 128 247.322 61.726 193.9 8 128 8S8.678 61.726 8.678 128C8.678 62.1 62.1 8.678 128 8.678z" opacity=".2"></path>
  <circle cx="128" cy="128" r="119.322" fill="#F44336"></circle>
  <linearGradient id="a" x1="111.418" x2="212.379" y1="111.408" y2="212.368" gradientUnits="userSpaceOnUse">
    <stop offset="0" style="stop-color:#212121;stop-opacity:.2"></stop>
    <stop offset="1" style="stop-color:#212121;stop-opacity:0"></stop>
  </linearGradient>
  <path fill="url(#a)" d="M128 247.322c65.9 0 119.322-53.422 119.322-119.322 0-2.532-.088-5.042-.244-7.535l-.024-.381c-.024-.368-.043-.737-.07-1.103l-.064-.772c-.019-.228-.041-.455-.061-.683l-.102-1.149c-.01-.101-.017-.203-.027-.303l-.124-1.222-67.239-67.2-78.483 74.29 9.522 8.893-22.566 28.987 12.732 12.126-23.92 36.437 39.123 38.318.202.019 1.063.094.493.044.773.069c.264.021.526.044.79.063l.487.031c.369.026.74.048 1.11.07l.176.011c2.359.139 4.736.218 7.131.218z"></path>
  <path fill="#FFEB3B" d="m146.864 99.354-.15-.001 32.652-51.701-78.482 74.29h16.444l-.039.05h.039l-4.716 6.009-24.773 31.82h20.519l-.176.266h.176l-31.706 48.298 80.504-72.217h-19.412l.053-.067h-.053l6.426-8.104 22.158-28.177-19.614-.231z"></path>
  <path fill="#BF360C" d="m180.431 45.966-79.6 75.976h.053l78.482-74.29z" opacity=".2"></path>
</svg>